<?xml version="1.0" encoding="UTF-8"?>
<!DOCTYPE svg PUBLIC "-//W3C//DTD SVG 1.1//EN" "http://www.w3.org/Graphics/SVG/1.1/DTD/svg11.dtd">
<!-- Creator: CorelDRAW 2020 (64-Bit) -->
<svg xmlns="http://www.w3.org/2000/svg" xml:space="preserve" width="37mm" height="8mm" version="1.1" style="shape-rendering:geometricPrecision; text-rendering:geometricPrecision; image-rendering:optimizeQuality; fill-rule:evenodd; clip-rule:evenodd"
viewBox="0 0 3700 800"
 xmlns:xlink="http://www.w3.org/1999/xlink"
 xmlns:xodm="http://www.corel.com/coreldraw/odm/2003">
 <defs>
  <style type="text/css">
   <![CDATA[
    .fil0 {fill:#69A34D}
   ]]>
  </style>
 </defs>
 <g id="Слой_x0020_1">
  <metadata id="CorelCorpID_0Corel-Layer"/>
  <path class="fil0" d="M540.71 465.13c-0.44,1.82 -1.47,7.44 -4.37,25.97 -4.04,25.94 -11.74,77.16 -33.86,112.53 -22.12,35.36 -58.66,54.86 -95.21,74.35 -18.47,4.1 -37.8,5.8 -57.63,4.76 -117.8,-6.17 -208.29,-106.67 -202.11,-224.47 6.17,-117.8 106.67,-208.29 224.47,-202.12 15.83,0.83 31.16,3.37 45.84,7.41 51.85,-99.61 158.47,-165.15 277.94,-158.89 142.26,7.46 255.76,114.27 276.77,249.66 8.85,-1.11 17.91,-1.46 27.12,-0.97 83.82,4.39 148.21,75.9 143.82,159.72 -4.4,83.81 -75.91,148.2 -159.73,143.81 -38.64,-2.03 -73.15,-18.32 -98.7,-43.5 -56.88,54.56 -135.31,86.39 -220.23,81.94 -37.29,-1.95 -72.59,-10.73 -104.77,-25.06 -12.98,5.76 -25.95,11.52 -38.93,17.28 42.29,23.45 90.44,37.89 141.98,40.6 83.77,4.39 161.86,-23 222.55,-71.62 27.44,19.25 60.44,31.29 96.39,33.17 101.93,5.34 188.9,-72.97 194.25,-174.9 5.34,-101.94 -72.97,-188.91 -174.91,-194.25 -0.72,-0.04 -1.45,-0.08 -2.18,-0.11 -34.01,-136.54 -153.88,-240.84 -301.71,-248.58 -123.7,-6.49 -235,56.32 -296.22,154.46 -9.02,-1.48 -18.21,-2.49 -27.56,-2.98 -135.92,-7.12 -251.88,97.29 -259.01,233.21 -7.12,135.92 97.29,251.88 233.21,259.01 37.04,1.94 72.59,-4.4 104.87,-17.4 31.43,-7.19 62.87,-14.38 107.51,-43.79 44.65,-29.41 102.49,-81.03 115.88,-155.9 13.38,-74.87 -17.69,-172.99 -33.23,-222.05 -15.54,-49.07 -15.54,-49.07 -15.54,-49.07 0,0 0,0 -9.14,17.06 -9.15,17.05 -27.44,51.16 -69.55,88.01 -42.1,36.85 -108.02,76.44 -139.39,130.98 -31.36,54.55 -28.17,124.04 -26.58,159.49 1.58,35.45 1.57,36.86 1.69,37.57 0.11,0.71 0.35,0.73 16.85,-10.14 16.5,-10.86 49.26,-32.61 75.32,-65.49 26.06,-32.89 45.42,-76.92 55.06,-98.93 6.02,-13.73 8.26,-18.9 9.04,-20.77zm0.32 -0.93c0.09,-0.12 0.15,-0.2 -0.32,0.93 0.17,-0.72 0.25,-0.84 0.32,-0.93z"/>
 </g>
</svg>
