<?xml version="1.0" encoding="UTF-8"?>
<!DOCTYPE svg PUBLIC "-//W3C//DTD SVG 1.1//EN" "http://www.w3.org/Graphics/SVG/1.1/DTD/svg11.dtd">
<!-- Creator: CorelDRAW 2020 (64-Bit) -->
<svg xmlns="http://www.w3.org/2000/svg" xml:space="preserve" width="2000mm" height="1100mm" version="1.1" style="shape-rendering:geometricPrecision; text-rendering:geometricPrecision; image-rendering:optimizeQuality; fill-rule:evenodd; clip-rule:evenodd"
viewBox="0 0 200000 110000"
 xmlns:xlink="http://www.w3.org/1999/xlink"
 xmlns:xodm="http://www.corel.com/coreldraw/odm/2003">
 <defs>
  <style type="text/css">
   <![CDATA[
    .fil0 {fill:#91D8F7;fill-rule:nonzero}
   ]]>
  </style>
 </defs>
 <g id="Слой_x0020_1">
  <metadata id="CorelCorpID_0Corel-Layer"/>
  <path class="fil0" d="M10539.68 12439.8c124.61,32.57 239.88,89.25 340.81,164.93l20413.4 -7734.8 1191.87 0 -21314.92 8076.39c62.58,119.36 102.5,252.86 113.84,394.44l49464.98 6449.26c40.03,-290.92 152.34,-559.34 318.51,-787.12l-25307.3 -14132.97 865.38 0 24739.2 13815.71c263.61,-220.04 592.74,-365.66 954.08,-404.07l1347.38 -13411.64 424.18 0 -1347.86 13416.34c397.25,51.26 753.54,232.39 1023.7,498.89 171.28,168.96 307.89,372.03 398.39,597.91l27866.1 -7352.66c42.46,-255.08 181.31,-482.18 383.92,-653.61 111.51,-94.36 242.58,-171.7 387.29,-227.05l-8848.3 -6279.82 729.37 0 8714.99 6185.21c243.91,10.99 470.79,80.22 661.84,191.75l7314.19 -6376.96 641.98 0 -7628.08 6650.63c138.22,163.75 227.24,360.54 248.71,574.82l33215.97 3677.59c45.49,-243.43 160.68,-461.61 323.15,-631.15 214.87,-224.21 512.07,-362.9 840.62,-362.9 83.74,0 165.44,9.03 244.26,26.17l10317.3 -9935.16 608.67 0 -10508 10118.79c64.19,44.97 123.94,96.28 178.39,153.1 186.29,194.39 310.43,452.74 338.61,739.75l23332.12 13614.85c32.28,-39.05 66.8,-76.3 103.4,-111.55 194.13,-186.94 446.35,-317.37 727.74,-363.5l-1848.31 -24151.44 424.09 0 1847.95 24146.87c59.81,8.43 118.37,20.59 175.37,36.34l12451.69 -24183.21 475.01 0 -12541.33 24357.3c313.15,205.03 532.96,533.62 585.08,913.53l24122.01 4900.81c72.58,-199.81 188.13,-379.01 335.51,-526.39 202.96,-202.95 466.24,-345.58 760.63,-398.67l-6316.98 -29246.58 432.69 0 6314.25 29233.96c299.22,35.83 570.25,163.45 784.08,353.92l3334.05 -4104.91 0 669.36 -3058.93 3766.19c131.54,217.22 207.28,472.01 207.28,744.47 0,397.43 -161.12,757.26 -421.59,1017.74 -23.54,23.54 -47.91,46.26 -73.03,68.14l3346.27 11348.07 0 1492.99 -3717.35 -12606.5c-175.76,76.48 -369.75,118.89 -573.63,118.89 -175.66,0 -343.96,-31.49 -499.59,-89.11l-12398.54 22563.42c208.59,62.33 394.77,182.16 542.98,342.73 174.69,189.25 296.12,435.37 337.86,709.66l16308.27 0 0 423.34 -16308.27 0c-41.74,274.29 -163.17,520.41 -337.86,709.66 -173.16,187.6 -398.15,319.61 -650.19,369.25l2219.34 35125.25c32.02,6.42 63.49,14.35 94.33,23.71l14982.65 -29532.25 0 933.3 -14613.31 28804.24c12.88,11.3 25.47,22.91 37.73,34.84 136.79,133.11 234.27,304.45 274.03,496.09l14301.55 1321.67 0 423.53 -14309.44 -1322.39c-43.87,177.6 -137.66,336.34 -266.14,461.36 -25.3,24.61 -51.93,47.9 -79.79,69.76l2456.02 6029.62 -456.58 0 -2380.63 -5844.53c-76.9,18.73 -157.28,28.69 -239.97,28.69 -188.19,0 -364.45,-51.5 -514.77,-140.87l-13014.11 5956.71 -1013.46 0 13700.72 -6270.98c-76.9,-119.06 -128.11,-255.39 -146.07,-401.64l-25365.03 -17004.64c-105.3,53.1 -221.46,90.86 -344.52,109.82l-3665.01 23567.44 -426.75 0 3666.68 -23578.23c-196.02,-40.64 -372.11,-129.35 -511.37,-251.38 -15.98,-14 -31.48,-28.44 -46.48,-43.29l-36192.66 23389.52c29.05,118.88 44.52,243.51 44.52,371.89 0,37.5 -1.32,74.68 -3.91,111.49l-424.75 0c3.51,-36.63 5.32,-73.82 5.32,-111.49 0,-295.54 -110.87,-562.11 -290.12,-754.16 -175.39,-187.92 -417.11,-304.17 -683.54,-304.17 -266.43,0 -508.15,116.25 -683.54,304.17 -179.25,192.05 -290.12,458.62 -290.12,754.16 0,37.67 1.81,74.86 5.32,111.49l-424.75 0c-2.59,-36.81 -3.91,-73.99 -3.91,-111.49 0,-236.18 52.32,-459.68 145.29,-658.02l-23092.01 -15090.74c-42.51,53.94 -87.85,105.48 -135.82,154.37 -303.32,309.14 -710.79,512.04 -1164.05,549.31l-5313.65 15156.57 -447.22 0 5319.49 -15173.24c-384.24,-61.28 -729.56,-242.46 -997.94,-504.83l-25557.82 15678.07 -807.61 0 26096.13 -16008.29c-159.64,-248.12 -263.5,-536.51 -293.44,-846.69l-49329.53 -6377.01c-50.64,245.9 -178.62,465.5 -359.1,635.36l-0.75 0.69 9591.77 22595.94 -458.79 0 -9490.75 -22357.95c-166.85,74.87 -353.17,116.78 -549.49,116.78 -67.38,0 -133.58,-4.95 -198.22,-14.46l-11285.21 22255.63 -473.44 0 11350.79 -22384.97c-111.35,-56.47 -213.01,-127.98 -301.93,-211.66 -187.35,-176.33 -318.12,-406.26 -364.54,-663.56l-18709.28 -214.35c-64.75,255.27 -185.83,484.3 -347,668.5 -238.59,272.65 -564.23,447.55 -926.92,467.58l0 -424.33c236.26,-19.77 449.88,-138.74 609.42,-321.07 181.8,-207.78 294.25,-497.19 294.25,-818.98 0,-321.79 -112.46,-611.21 -294.25,-818.98 -159.54,-182.33 -373.16,-301.3 -609.42,-321.07l0 -424.35c64.77,3.59 128.35,12.12 190.47,25.25l17080.39 -34751.98c-16.37,-12.81 -32.29,-26.07 -47.72,-39.78 -144.39,-128.35 -246.77,-295.09 -287.26,-482.5l-16935.88 -3016.43 0 -429.68 16952.78 3019.45c48.36,-160.74 143.03,-303.77 270.37,-416.95 25.11,-22.33 51.52,-43.47 79.09,-63.36l-12845.69 -28816.69c-218.79,-31.88 -414.82,-136.76 -563.91,-289.87 -43.46,-44.64 -82.88,-93.38 -117.69,-145.56l-3774.95 7875.62 0 -975.4 3604.03 -7519.04c5.68,-122.68 32.78,-239.76 77.57,-347.41l-3681.6 -3577.97 0 -588.68 3925.16 3814.68c135.23,-126.96 304.59,-216.18 492.24,-251.42l1411.68 -7555.04 429.58 0 -1414.45 7569.87zm155.99 562.85c-102.92,-105.69 -245.21,-171.08 -402.47,-171.08 -157.25,0 -299.55,65.39 -402.47,171.08 -104.42,107.25 -169.02,256.26 -169.02,421.58 0,165.32 64.6,314.33 169.02,421.58 102.92,105.69 245.22,171.08 402.47,171.08 157.26,0 299.55,-65.39 402.47,-171.08 40.72,-41.82 75.38,-89.99 102.52,-143l-532.27 -69.4 54.56 -418.36 528.23 68.87c-25.25,-108.65 -79.18,-205.41 -153.04,-281.27zm536.69 756.76c-49.63,144.52 -130.4,274.26 -234.07,380.74 -111.07,114.07 -248.18,201.35 -401.35,251.64l12785.85 28682.45c78.42,-17.73 160.38,-27.16 244.65,-27.16 275.31,0 526.04,100.51 708.82,262.99 102.59,91.19 183.97,201.76 237.02,325.35l36361.93 -22794.39c-101.23,-190.94 -167.9,-402.42 -191.89,-626.36l-49510.96 -6455.26zm52238.57 5326.71c-245.12,-241.8 -584.35,-391.38 -959.56,-391.38 -375.2,0 -714.44,149.57 -959.56,391.38 -244.11,240.81 -395.1,573.88 -395.1,942.11 0,368.23 150.99,701.3 395.1,942.11 245.12,241.81 584.36,391.38 959.56,391.38 375.21,0 714.44,-149.58 959.56,-391.38 244.11,-240.81 395.1,-573.88 395.1,-942.11 0,-368.23 -150.99,-701.3 -395.1,-942.11zm802.34 705.27c10.59,77.47 16.1,156.53 16.1,236.84 0,299.84 -76.3,582.24 -210.77,829.42l23752.56 15448.07c40.02,-47.07 82.7,-92.03 127.84,-134.66 313.64,-296.22 745.88,-479.45 1222.32,-479.45 32.55,0 64.9,0.89 97.01,2.57l3804.9 -22374.86c-257,-42.69 -487.91,-150.66 -667.89,-302.96 -176.06,-148.97 -303.98,-339.97 -362.34,-554.84l-27779.73 7329.87zm-439.58 1410.35c-21.62,23.77 -43.87,46.98 -66.76,69.56 -288.32,284.42 -674.75,471.6 -1104.37,507.45l-12819.93 35799.39c154.13,47.18 292.01,131.57 403.15,242.71 16.05,16.05 31.54,32.67 46.45,49.81l37185.93 -20208.78c-21.32,-103.3 -32.51,-210.04 -32.51,-319.27 0,-243.65 55.57,-474.95 155.38,-683.18l-23767.34 -15457.69zm-1614.37 559.67c-373.03,-61.07 -707.07,-237.14 -963.51,-490.11 -27.53,-27.16 -54.14,-55.21 -79.83,-84.08l-36541.81 22907.16c-8.43,58.99 -22.93,116.2 -42.91,171.1l24240.04 13595.1c12.15,-13.59 24.66,-26.84 37.55,-39.73 142.04,-142.04 327.75,-240.39 535.24,-273.2l12815.23 -35786.24zm31752.6 -10062.15c-162.34,-137.37 -389.14,-222.34 -641.87,-222.34 -252.73,0 -479.53,84.97 -641.87,222.34 -152.68,129.19 -247.13,305.19 -247.13,497.32 0,192.14 94.45,368.13 247.13,497.32 162.34,137.37 389.14,222.34 641.87,222.34 252.73,0 479.53,-84.97 641.87,-222.34 152.68,-129.19 247.13,-305.18 247.13,-497.32 0,-192.13 -94.45,-368.13 -247.13,-497.32zm618.95 816.12c-64.05,192.94 -184.9,364.58 -346.11,500.98 -195.42,165.37 -450.9,278.49 -734.62,312.51l-3815.35 22436.35c270.5,79.72 512.83,220.71 708.85,405.84 74.02,69.91 141.45,146.07 201.34,227.56l36752.71 -20255.38 -32766.82 -3627.86zm34962.56 2919.14c-137.52,-143.5 -327.18,-232.26 -536.36,-232.26 -209.18,0 -398.85,88.77 -536.36,232.26 -139.41,145.47 -225.64,347.66 -225.64,572.07 0,224.41 86.24,426.61 225.64,572.07 137.51,143.49 327.18,232.26 536.36,232.26 209.18,0 398.84,-88.76 536.36,-232.26 139.4,-145.46 225.64,-347.66 225.64,-572.07 0,-224.41 -86.23,-426.6 -225.64,-572.07zm602.33 913.33c-56.01,200.07 -159.94,379.38 -298.07,523.51 -181.04,188.91 -420.53,317.1 -687.97,352.79l-12498.04 35199.92c188.39,86.78 360.55,196.48 511.3,324.78 111.84,95.18 211.9,200.51 298.26,314.26l35846.92 -22260.76c-62.18,-150.6 -96.44,-314.95 -96.44,-487.07 0,-159.37 29.4,-312.11 83.27,-453.46l-23159.23 -13513.97zm-1425.21 850.21c-213.33,-54.97 -403.85,-169.92 -554.1,-326.7 -139.93,-146.02 -244.79,-328.12 -300.26,-531.35l-37067.15 20428.67c69.81,178.78 107.95,372.11 107.95,573.93 0,238.6 -53.31,465.34 -149.24,670.19l23236.06 14819.68c29.86,-28.67 60.72,-56.56 92.53,-83.63 397.27,-338.1 943.11,-547.23 1543.32,-547.23 220.2,0 433.07,28.17 633.98,80.52l12456.91 -35084.08zm26787.17 13117.22c0,-490.97 -416.98,-888.99 -931.33,-888.99 -259.28,0 -493.24,100.46 -661.87,262.84 -166.48,160.31 -269.46,381.7 -269.46,626.15 0,490.97 416.98,888.99 931.33,888.99 259.28,0 493.24,-100.46 661.87,-262.84 166.48,-160.31 269.46,-381.7 269.46,-626.15zm398.11 252.98c-52.95,261.94 -186.53,496.08 -374.87,677.43 -57.4,55.28 -119.88,105.61 -186.69,150.29l12837.24 27745.82 12342.91 -22462.18c-52.16,-39.63 -101.55,-82.72 -147.79,-128.96 -260.47,-260.48 -421.59,-620.31 -421.59,-1017.74 0,-26.24 0.72,-52.32 2.11,-78.21l-24051.32 -4886.45zm-944.81 1005.5c-121.98,35.03 -251.09,53.85 -384.63,53.85 -415.3,0 -786.9,-181.1 -1035.38,-466.17l-35854.39 22265.39c68.79,155.61 114.58,321.03 133.92,493.25l49172.29 6401.04c58.97,-202.71 162.68,-384.5 298.67,-531.83 152.9,-165.65 346.2,-287.96 562.85,-348.49l-12893.33 -27867.04zm-38060.88 21495.89c-322.83,-274.74 -771.84,-444.69 -1270.48,-444.69 -498.64,0 -947.65,169.95 -1270.48,444.69 -313.56,266.86 -507.51,633.61 -507.51,1036.97 0,403.35 193.95,770.11 507.51,1036.97 322.83,274.74 771.84,444.69 1270.48,444.69 498.64,0 947.65,-169.95 1270.48,-444.69 313.56,-266.86 507.51,-633.62 507.51,-1036.97 0,-403.36 -193.95,-770.11 -507.51,-1036.97zm913.8 1275.04c-42.97,298.42 -165.71,575.18 -349.39,814.23l25501.58 24352.73c164.12,-90.35 357.08,-142.56 562.82,-142.56 292.48,0 559.14,105.52 753.82,276.11 103.28,90.5 186.44,199.05 243.11,320.05l22596.35 -18562.85c-112.46,-193.3 -179.31,-420.17 -184.23,-662.96l-49124.06 -6394.75zm-640.93 1119.67c-358.71,305.29 -838.51,505.39 -1370.08,541.39l-4816.62 23574.46c93.07,107.48 161.32,238.59 195.27,383.39l31291.74 167.32c31.03,-125.88 89.18,-242.5 168.75,-344.88l-25469.06 -24321.68zm-1799.29 534.43c-498.58,-50.18 -947.39,-245.05 -1287.38,-534.4 -118.57,-100.91 -223.92,-213.23 -313.71,-334.88l-27788.56 6934.34c-14.58,99.02 -41.86,193.92 -80.13,282.97l23952.15 17099.36c139.48,-101.95 309.21,-161.74 492.4,-161.74 90.32,0 177.37,14.55 259.14,41.51l4766.09 -23327.16zm-1817.37 -1250.59c-82.9,-200.39 -128.02,-416.33 -128.02,-641.58 0,-345.58 106.2,-669.22 292.11,-948.47l-23189.45 -14789.95c-42.75,51.18 -88.61,99.93 -137.35,145.96 -313.64,296.22 -745.88,479.45 -1222.32,479.45 -94.24,0 -186.73,-7.2 -276.93,-20.99l-3794.32 21807.07c216.58,47.66 410.14,156.75 561.47,308.08 147.56,147.56 254.95,335.28 304.4,545.33l27590.41 -6884.9zm-23452.09 -18269.56c-237.92,-224.7 -567.71,-363.69 -932.94,-363.69 -365.23,0 -695.02,138.99 -932.94,363.69 -234.4,221.38 -379.39,526.87 -379.39,863.97 0,337.1 144.99,642.59 379.39,863.97 237.92,224.7 567.71,363.69 932.94,363.69 365.23,0 695.02,-138.99 932.94,-363.69 234.4,-221.38 379.39,-526.87 379.39,-863.97 0,-337.1 -144.99,-642.59 -379.39,-863.97zm-1619.24 2380.59c-201.2,-82.58 -382.77,-200.33 -536.02,-345.07 -137.79,-130.13 -252.72,-281.91 -338.67,-449.49l-37126.72 20176.61c24.34,85.15 37.38,175.07 37.38,268.03 0,194.28 -56.93,375.27 -155.01,527.23l27862.2 27314.81c318.17,-258.99 721.46,-413.86 1160.15,-413.86 62.09,0 123.47,3.13 184.01,9.19l5024.48 -22936.62c-212.62,-48.77 -402.63,-156.84 -551.68,-305.89 -206.85,-206.85 -334.8,-492.6 -334.8,-808.2 0,-315.6 127.95,-601.35 334.8,-808.2 166.67,-166.67 384.57,-282.09 628.02,-320.65l3811.86 -21907.89zm80243.32 21216.14c-144.71,-156.77 -343.82,-253.75 -562.98,-253.75 -219.16,0 -418.27,96.98 -562.98,253.75 -149.11,161.53 -241.35,386.07 -241.35,635.25 0,249.18 92.24,473.72 241.35,635.25 144.71,156.77 343.82,253.75 562.98,253.75 219.16,0 418.27,-96.98 562.98,-253.75 149.11,-161.53 241.35,-386.07 241.35,-635.25 0,-249.18 -92.24,-473.72 -241.35,-635.25zm-762.37 1930.34c-216.02,-37.75 -413.02,-135.82 -575.69,-277.69l-22786.16 18718.78c-20.58,174.64 -92.42,335.22 -201.95,469.87l25078.72 16812.7c50.88,-128.3 128.8,-243.54 226.98,-339.08 129.4,-125.89 293.84,-217.28 477.47,-258.74l-2219.37 -35125.84zm-82603.73 -618.64c-130.21,-130.21 -310.14,-210.76 -508.9,-210.76 -198.76,0 -378.69,80.55 -508.9,210.76 -130.21,130.21 -210.76,310.14 -210.76,508.9 0,198.76 80.55,378.69 210.76,508.9 130.21,130.21 310.14,210.76 508.9,210.76 198.76,0 378.69,-80.55 508.9,-210.76 130.21,-130.21 210.76,-310.14 210.76,-508.9 0,-198.76 -80.55,-378.69 -210.76,-508.9zm306.09 1310.23l-6.79 6.87c-168.31,168.31 -388.87,284.38 -635.24,321.79l-5040.85 23011.35c273.59,94.46 518.66,252.04 718.52,455.73 276.8,282.12 466.59,652.35 524.87,1065.25l28277.46 -7551.14c15.31,-83.43 41.9,-162.78 78.06,-236.28l-23916.03 -17073.57zm-35731.85 -4577.15c-99.57,-99.57 -237.16,-161.17 -389.16,-161.17 -152,0 -289.6,61.6 -389.17,161.17 -99.56,99.56 -161.16,237.16 -161.16,389.16 0,151.99 61.59,289.6 161.16,389.17 99.57,99.57 237.18,161.16 389.17,161.16 152,0 289.6,-61.6 389.16,-161.16 99.57,-99.57 161.17,-237.17 161.17,-389.17 0,-152 -61.6,-289.59 -161.17,-389.16zm129.42 1213.34c-150.16,94.69 -327.97,149.49 -518.58,149.49 -218.6,0 -420.4,-72.08 -582.93,-193.75l-20958.95 21417.11c107.86,148.88 181.99,321.32 212.01,507.58l49326.09 6376.56c43.56,-351.53 182.29,-673.28 389.13,-937.68l-27866.77 -27319.31zm-1377.67 -365.6c-73.11,-136.66 -114.58,-292.79 -114.58,-458.58 0,-97.33 14.29,-191.32 40.89,-280l-24268.6 -13611.12c-6.47,6.07 -13.02,12.08 -19.67,17.99 -130.65,116.14 -296.01,200.59 -480.23,239.34l3183.34 35300.75c251.12,16.18 482.92,100.94 674.53,234.66l20984.32 -21443.04zm-24643.09 -15341.98c-108.07,-96.07 -259.18,-155.49 -427.7,-155.49 -168.52,0 -319.63,59.42 -427.7,155.49 -101.5,90.21 -164.28,213.09 -164.28,347.21 0,134.13 62.79,257.01 164.27,347.22 108.07,96.06 259.19,155.49 427.71,155.49 168.52,0 319.64,-59.43 427.71,-155.49 101.48,-90.21 164.27,-213.09 164.27,-347.22 0,-134.12 -62.78,-257 -164.28,-347.21zm-621.8 1256.28c-30.17,-5.34 -59.87,-11.89 -89.03,-19.61l-17064.77 34720.23c127.16,75.78 242.68,173.01 342.85,287.48 247.19,282.51 400.09,670.44 400.09,1096.8l-0.04 7.19 18657.04 213.75c47.1,-255.52 177.45,-483.83 363.73,-659.15 157.7,-148.42 355.5,-258.57 576.31,-314.4l-3186.18 -35332.29zm4136.51 35954.27c-157.34,-148.09 -376,-239.7 -618.63,-239.7 -242.63,0 -461.29,91.61 -618.63,239.7 -153.96,144.9 -249.2,344.57 -249.2,564.63 0,220.05 95.24,419.73 249.2,564.63 157.34,148.09 376,239.7 618.63,239.7 242.63,0 461.29,-91.61 618.63,-239.7 153.96,-144.9 249.2,-344.58 249.2,-564.63 0,-220.06 -95.24,-419.73 -249.2,-564.63zm52843.16 5952.58c-259.58,-264.56 -618.34,-428.21 -1014.68,-428.21 -396.34,0 -755.1,163.65 -1014.68,428.21 -260.37,265.37 -421.43,632.86 -421.43,1039.51 0,406.65 161.07,774.13 421.44,1039.5 259.58,264.56 618.33,428.21 1014.67,428.21 396.34,0 755.1,-163.65 1014.68,-428.21 260.37,-265.37 421.43,-632.85 421.43,-1039.5 0,-406.65 -161.06,-774.14 -421.43,-1039.51zm837.82 1203.64c-19.85,233.91 -81.69,455.76 -177.83,657.71l23100.46 15096.26c8.97,-10.17 18.06,-20.22 27.29,-30.11 253.59,-271.7 604.56,-439.77 992.76,-439.77 92.52,0 182.92,9.57 270.39,27.79l4642.97 -22281.19c-136.92,-43.69 -259.32,-122.1 -357.83,-225.47 -95.01,-99.68 -167.52,-222.57 -208.88,-359.54l-28289.33 7554.32zm29411.19 -8152.66c-77.86,-81.7 -185.21,-132.24 -303.53,-132.24 -118.32,0 -225.67,50.54 -303.53,132.24 -80.55,84.5 -130.38,202.33 -130.38,333.42 0,131.09 49.83,248.92 130.38,333.42 77.86,81.7 185.21,132.24 303.53,132.24 118.32,0 225.67,-50.54 303.53,-132.24 80.55,-84.5 130.38,-202.33 130.38,-333.42 0,-131.09 -49.83,-248.92 -130.38,-333.42zm529.08 545.26c-37.5,158.33 -116.03,300.22 -223.16,412.62 -116.44,122.18 -266.26,209.52 -434,245.83l-4670.71 22414.35c119.25,69.33 227.99,156.61 323.04,258.46 75.96,81.39 143.09,172.12 199.76,270.37l36123.68 -23344.94c-10.47,-29.21 -19.46,-59.02 -26.87,-89.36l-31291.74 -167.33zm32823.85 -422.58c-120.05,-105.19 -288.21,-170.27 -476,-170.27 -187.79,0 -355.95,65.08 -476,170.27 -112.4,98.49 -181.94,232.97 -181.94,380.06 0,147.09 69.53,281.57 181.94,380.06 120.05,105.19 288.21,170.27 476,170.27 187.79,0 355.95,-65.08 476,-170.27 112.41,-98.49 181.94,-232.97 181.94,-380.06 0,-147.09 -69.54,-281.57 -181.94,-380.06zm26810.48 17730.21c-103.39,-100.59 -247.11,-162.82 -406.61,-162.82 -159.5,0 -303.22,62.23 -406.61,162.82 -101.86,99.11 -164.88,236.13 -164.88,387.51 0,151.38 63.02,288.4 164.88,387.51 103.39,100.59 247.11,162.82 406.61,162.82 159.5,0 303.22,-62.23 406.61,-162.82 101.86,-99.11 164.88,-236.13 164.88,-387.51 0,-151.38 -63.02,-288.4 -164.88,-387.51zm11297.38 -62878.43c-183.84,-183.84 -437.85,-297.55 -718.44,-297.55 -280.58,0 -534.6,113.72 -718.44,297.55 -183.84,183.84 -297.55,437.85 -297.55,718.44 0,280.58 113.72,534.6 297.55,718.44 183.84,183.83 437.86,297.55 718.44,297.55 280.59,0 534.6,-113.71 718.44,-297.55 183.83,-183.84 297.55,-437.86 297.55,-718.44 0,-280.59 -113.71,-534.6 -297.55,-718.44z"/>
 </g>
</svg>
